<?xml version="1.0" encoding="UTF-8" standalone="no"?>
<!-- Created with Inkscape (http://www.inkscape.org/) -->

<svg
   xmlns:dc="http://purl.org/dc/elements/1.1/"
   xmlns:cc="http://creativecommons.org/ns#"
   xmlns:rdf="http://www.w3.org/1999/02/22-rdf-syntax-ns#"
   xmlns:svg="http://www.w3.org/2000/svg"
   xmlns="http://www.w3.org/2000/svg"
   xmlns:sodipodi="http://sodipodi.sourceforge.net/DTD/sodipodi-0.dtd"
   xmlns:inkscape="http://www.inkscape.org/namespaces/inkscape"
   width="210mm"
   height="297mm"
   viewBox="0 0 744.09448819 1052.3622047"
   id="svg3494"
   version="1.1"
   inkscape:version="0.91 r13725"
   sodipodi:docname="email.svg">
  <defs
     id="defs3496" />
  <sodipodi:namedview
     id="base"
     pagecolor="#ffffff"
     bordercolor="#666666"
     borderopacity="1.0"
     inkscape:pageopacity="0.0"
     inkscape:pageshadow="2"
     inkscape:zoom="0.5"
     inkscape:cx="613.91436"
     inkscape:cy="422.27146"
     inkscape:document-units="px"
     inkscape:current-layer="layer1"
     showgrid="false"
     inkscape:window-width="1366"
     inkscape:window-height="719"
     inkscape:window-x="0"
     inkscape:window-y="25"
     inkscape:window-maximized="1" />
  <metadata
     id="metadata3499">
    <rdf:RDF>
      <cc:Work
         rdf:about="">
        <dc:format>image/svg+xml</dc:format>
        <dc:type
           rdf:resource="http://purl.org/dc/dcmitype/StillImage" />
        <dc:title></dc:title>
      </cc:Work>
    </rdf:RDF>
  </metadata>
  <g
     inkscape:label="Layer 1"
     inkscape:groupmode="layer"
     id="layer1">
    <path
       style="fill:#000000;fill-rule:evenodd;stroke:#000000;stroke-width:1px;stroke-linecap:butt;stroke-linejoin:miter;stroke-opacity:1"
       d="M 358.47266 244.64453 C 352.41638 244.66341 346.31464 244.90611 340.16797 245.37695 C 279.23365 248.85823 236.74345 273.24199 196.72656 300.42969 C 162.89403 328.469 132.97768 360.42419 112.75781 402.07617 C 98.167758 433.50366 86.226423 466.25593 81.949219 502.83984 C 77.231564 534.11615 79.149785 566.78824 83.337891 599.93945 C 89.850411 629.64638 97.526325 659.13661 111.49609 687.44531 C 123.76827 714.1585 142.82367 736.99404 161.49805 760.04883 C 183.52842 785.33945 213.63615 804.47705 245.4668 822.30078 C 273.2757 836.87937 305.96894 844.28311 341.30469 847.80664 C 371.7815 850.24203 400.5067 845.35343 428.39844 836.97852 L 426.78516 774.59375 C 408.76158 781.69858 389.89742 786.41989 369.875 787.86133 C 329.01248 789.39654 292.78158 781.11271 260.25 764.98633 C 230.39754 749.41087 210.70247 729.65296 192 709.48633 C 173.53364 685.81249 160.78584 658.93626 150.625 630.61133 C 140.73049 599.36994 139.48828 570.90965 138.75 542.61133 C 139.15396 514.1231 144.86649 486.51963 153.25 459.36133 C 163.19116 430.00436 178.93723 402.13583 201.875 376.11133 C 224.33612 354.97784 246.25105 333.58731 285.25 320.23633 C 324.95184 306.602 365.00655 304.78909 405.375 313.48633 C 448.74016 321.78784 478.45581 343.73885 506.375 367.48633 C 523.72846 386.77006 541.14388 405.83691 555.25 436.48633 C 564.01598 459.60898 573.26338 482.19002 576.875 511.11133 C 578.69429 531.33209 580.372 551.63152 579.25 573.48633 C 578.37261 591.81966 577.01814 610.153 573.5 628.48633 C 568.16163 642.1491 566.40035 655.19865 550.125 670.73633 C 540.23346 678.12478 529.95474 684.7711 516.125 684.61133 C 505.96266 682.52578 495.85631 682.56796 485.375 668.36133 C 477.40413 658.01272 476.98226 651.85906 474.62109 644.62695 L 474.62109 392.21094 L 409.01172 392.21094 L 408.64648 416.82617 L 390.17188 405.99023 C 365.61819 395.17113 347.9932 394.74693 331.33008 395.76367 C 286.18252 401.1087 268.05909 422.09943 247.36133 441.59961 C 227.67129 463.00063 218.75499 488.5905 210.86914 514.58203 C 204.10626 537.70443 205.72508 561.52549 206.70312 585.29297 C 210.72296 609.58821 217.70576 633.07612 229.05273 655.37305 C 242.96292 675.09108 255.81745 695.21905 281.32812 710.42578 C 303.49184 724.39467 327.16798 728.42621 351.66016 727.09375 C 371.1235 723.12765 387.2739 724.6173 421.99219 695.52539 C 431.26418 706.33871 438.20782 717.60365 454.31641 727.09375 C 470.18301 739.26837 492.65893 744.09865 516.94531 746.91797 C 543.05838 747.56744 566.77987 740.85962 586.77148 722.67383 C 615.70093 693.19428 631.31105 653.38508 637.1543 606.00195 C 639.28677 572.709 643.40265 539.416 638.41602 506.12305 C 634.31022 456.66702 611.63113 416.74903 590.6875 375.93945 C 563.34808 331.40629 523.80088 300.43709 479.57031 274.67188 C 441.07909 255.29061 400.86657 244.5124 358.47266 244.64453 z M 340.92578 459.9082 C 398.851 463.47537 417.06369 529.92595 416.51758 559.68359 C 415.49332 639.18689 374.30953 663.89728 338.90625 665.97852 C 281.65702 660.38632 260.12305 588.70067 263.65039 560.92383 C 262.47868 542.69735 275.72706 464.19341 340.92578 459.9082 z "
       id="path3510" />
  </g>
  <g
     inkscape:groupmode="layer"
     id="layer7"
     inkscape:label="Layer 2" />
</svg>
