<?xml version="1.0" encoding="UTF-8" standalone="no"?>
<!-- Created with Inkscape (http://www.inkscape.org/) -->

<svg
   xmlns:dc="http://purl.org/dc/elements/1.1/"
   xmlns:cc="http://creativecommons.org/ns#"
   xmlns:rdf="http://www.w3.org/1999/02/22-rdf-syntax-ns#"
   xmlns:svg="http://www.w3.org/2000/svg"
   xmlns="http://www.w3.org/2000/svg"
   xmlns:sodipodi="http://sodipodi.sourceforge.net/DTD/sodipodi-0.dtd"
   xmlns:inkscape="http://www.inkscape.org/namespaces/inkscape"
   width="210mm"
   height="297mm"
   viewBox="0 0 744.09448819 1052.3622047"
   id="svg2"
   version="1.1"
   inkscape:version="0.91 r13725"
   sodipodi:docname="github.svg">
  <defs
     id="defs4" />
  <sodipodi:namedview
     id="base"
     pagecolor="#ffffff"
     bordercolor="#666666"
     borderopacity="1.0"
     inkscape:pageopacity="0.0"
     inkscape:pageshadow="2"
     inkscape:zoom="0.7"
     inkscape:cx="409.57896"
     inkscape:cy="471.67595"
     inkscape:document-units="px"
     inkscape:current-layer="layer1"
     showgrid="false"
     inkscape:window-width="1366"
     inkscape:window-height="719"
     inkscape:window-x="0"
     inkscape:window-y="25"
     inkscape:window-maximized="1" />
  <metadata
     id="metadata7">
    <rdf:RDF>
      <cc:Work
         rdf:about="">
        <dc:format>image/svg+xml</dc:format>
        <dc:type
           rdf:resource="http://purl.org/dc/dcmitype/StillImage" />
        <dc:title></dc:title>
      </cc:Work>
    </rdf:RDF>
  </metadata>
  <g
     inkscape:label="Layer 1"
     inkscape:groupmode="layer"
     id="layer1">
    <path
       style="fill:#000000;fill-rule:evenodd;stroke:#000000;stroke-width:1px;stroke-linecap:butt;stroke-linejoin:miter;stroke-opacity:1"
       d="M 311.78571,756.29078 C 307.97517,768.78616 301.20947,767.88481 295,769.50506 206.02897,741.98519 182.84193,701.41742 142.8125,659.01399 132.54919,651.34897 88.078174,559.09673 86.873119,495.26308 89.659235,436.78426 98.089484,379.80467 131.06729,329.34552 c 23.27507,-39.18909 54.86474,-69.77833 92.17642,-94.44926 40.87413,-25.07488 85.0191,-43.2966 135.86552,-47.47717 61.6167,-2.94541 87.4209,6.04668 117.43023,13.63706 48.87479,14.5802 77.22603,39.69952 109.34902,62.88199 25.20144,23.92912 47.62596,52.22196 66.16499,86.62058 12.33485,33.87551 27.86616,59.44024 31.31473,116.42008 -1.56595,36.11295 -0.28832,72.22591 -13.13199,108.33886 -12.16083,38.19294 -31.66611,73.30594 -58.58884,105.30841 -24.84528,22.52976 -46.87711,47.1696 -78.7919,64.39722 -18.40511,11.22382 -38.05545,19.21002 -58.84139,24.24366 -9.48425,-0.64534 -12.69235,-6.09009 -14.14213,-12.87944 l 0.50507,-78.53936 -0.75761,-18.43529 c -1.93768,-24.19499 -12.04146,-30.80145 -19.69798,-42.67894 33.0844,-3.09135 65.52238,-8.88594 93.43911,-33.58757 21.05838,-18.84428 36.1178,-43.75425 40.91118,-79.04444 1.64788,-24.15948 5.05505,-48.31897 -3.78807,-72.47845 -6.78148,-23.69352 -16.48601,-31.01793 -25.50635,-42.17386 5.29355,-11.22476 7.20919,-23.48887 6.31345,-36.61803 -0.0152,-15.05514 -3.58507,-29.04386 -8.33376,-42.67895 -17.20815,-0.623 -33.43643,3.16341 -48.73986,11.11168 l -34.34518,19.44544 c -45.36148,-11.97978 -55.26111,-7.96696 -78.7919,-10.10153 -25.96473,-0.39561 -47.8893,5.55759 -70.71068,10.10153 -11.42585,-8.28114 -21.25787,-12.84336 -31.31473,-17.93021 -15.11526,-6.99248 -29.8541,-14.61233 -50.50763,-12.37437 -6.05101,14.73222 -8.75066,29.74371 -9.09137,44.95179 0.77051,12.34111 1.9986,24.35537 6.06092,34.34518 -16.32341,17.42469 -24.35731,38.45351 -29.7995,60.60916 -5.23985,31.58171 2.62051,58.12488 9.34391,85.10535 6.97714,21.8087 21.02901,39.08957 39.90102,53.28555 19.14142,12.82208 42.12049,22.50426 71.72083,26.76904 l 14.14214,1.76777 c -5.43793,6.24134 -11.61711,11.95321 -13.8896,20.45558 -3.42032,6.27654 -4.45522,12.95065 -5.05076,19.69798 -12.69688,7.35409 -26.00317,6.17655 -39.14341,7.32361 -13.2532,0.25814 -22.51688,-6.13291 -31.56727,-12.87945 -7.80391,-6.24909 -12.90629,-14.6594 -18.43528,-22.72843 -6.17986,-9.81423 -14.56519,-17.42299 -25.50636,-22.4759 -7.77126,-5.31892 -16.00765,-5.05628 -24.24366,-4.79822 -9.56452,2.84292 -5.50053,6.87092 -4.79822,10.6066 l 24.24366,20.20305 c 9.43729,11.33661 17.71925,26.13921 25.25381,43.18402 11.42787,12.5535 24.39157,24.3007 54.54824,27.02158 13.14588,-0.68079 26.40916,-1.06807 38.63834,-4.04061 z"
       id="path3347"
       inkscape:connector-curvature="0"
       sodipodi:nodetypes="ccccccccccccccccccccccccccccccccccccccccccccccccccc" />
  </g>
</svg>
